<?xml version="1.0" encoding="utf-8"?>
<!-- Generator: Adobe Illustrator 23.0.3, SVG Export Plug-In . SVG Version: 6.00 Build 0)  -->
<svg version="1.1" id="Layer_1" xmlns="http://www.w3.org/2000/svg" xmlns:xlink="http://www.w3.org/1999/xlink" x="0px" y="0px"
	 viewBox="0 0 512 512" style="enable-background:new 0 0 512 512;" xml:space="preserve">
<style type="text/css">
	.st0{fill:#3E3D42;}
	.st1{fill:#E5E5E5;}
</style>
<path class="st0" d="M408.09,462H103.91C74.14,462,50,437.86,50,408.09V103.91C50,74.14,74.14,50,103.91,50h304.17
	C437.86,50,462,74.14,462,103.91v304.17C462,437.86,437.86,462,408.09,462z"/>
<g>
	<g>
		<g>
			<path class="st1" d="M217.7,234.84c-18.2,11.09-17.86,38.45,3.33,48.29c-1.38,3.12-2.66,6.31-4.17,9.38
				c-3.03,6.16-6.47,12.06-11.33,17.03c-5.36,5.48-11.47,7.39-18.81,4.43c-2.06-0.83-4.21-1.42-6.31-2.15
				c-4.47-1.55-8.96-1.52-13.45-0.09c-2.78,0.89-5.59,1.72-8.31,2.78c-5.17,2.02-9.74,0.85-14-2.34c-5.36-4-9.26-9.26-12.54-14.98
				c-6.27-10.91-10.25-22.58-10.74-35.24c-0.39-10.08,1.55-19.62,7.93-27.76c8.09-10.32,19.26-13.5,31.64-9.22
				c2.1,0.73,4.19,1.49,6.25,2.32c3.14,1.27,6.15,1.14,9.36-0.05c4.37-1.62,8.8-3.44,13.36-4.11c10.19-1.49,19.1,1.49,26.06,9.39
				C216.58,233.2,217.08,233.99,217.7,234.84z"/>
			<path class="st1" d="M171.07,221.27c-1.98-11.84,9.9-27.54,24.3-27.82C197.41,206.36,184.81,222.89,171.07,221.27z"/>
		</g>
		<g>
			<path class="st1" d="M243.26,229.32h14.12v-24.55h21.29v24.55h17.98v16.33h-17.98v46.17c0,7.3,2.05,10.5,9.56,10.5
				c1.6,0,4.24-0.05,6.26-0.42v14.97c-4.47,1.56-10.62,1.67-15.3,1.67c-16,0-21.81-8.48-21.81-23.62v-49.27h-14.12V229.32z"/>
			<path class="st1" d="M329.27,229.32c9.55,31.9,17.1,58.25,19.15,68.97h0.17c2.36-12.94,11.23-39.42,20.76-68.97h21.32
				l-31.52,88.03h-22.64l-30.13-88.03H329.27z"/>
		</g>
	</g>
</g>
</svg>
