<?xml version="1.0" encoding="utf-8"?>
<!-- Generator: Adobe Illustrator 23.0.3, SVG Export Plug-In . SVG Version: 6.00 Build 0)  -->
<svg version="1.1" id="Layer_1" xmlns="http://www.w3.org/2000/svg" xmlns:xlink="http://www.w3.org/1999/xlink" x="0px" y="0px"
	 viewBox="0 0 512 512" style="enable-background:new 0 0 512 512;" xml:space="preserve">
<style type="text/css">
	.st0{fill:#00C3FF;}
	.st1{fill:#FFFFFF;}
</style>
<path class="st0" d="M408.09,462H103.91C74.14,462,50,437.86,50,408.09V103.91C50,74.14,74.14,50,103.91,50h304.17
	C437.86,50,462,74.14,462,103.91v304.17C462,437.86,437.86,462,408.09,462z"/>
<g>
	<g>
		<path class="st1" d="M407.58,309.8c-0.05,5.3-2.21,10.11-5.7,13.6c-3.53,3.53-8.41,5.7-13.78,5.7h-25.08l18.24,31.59
			c1.77,3.06,2.62,6.42,2.62,9.74c0,6.72-3.48,13.26-9.74,16.86c-9.32,5.37-21.22,2.19-26.6-7.12l-29.49-51.07l-22.49-38.95
			L277,257.95c-4.8-8.31-7.54-17.71-7.55-27.31c0-0.06,0-0.12,0-0.18c0-21.22,9.11-32.46,14.99-37.5l56.11,97.18h46.88
			C398.24,290.14,407.68,298.98,407.58,309.8z"/>
		<path class="st1" d="M299.03,315.2v5.7c0,4.53-3.67,8.2-8.2,8.2H123.89c-10.76,0-19.47-8.71-19.47-19.47
			c0-5.37,2.17-10.25,5.7-13.78c3.53-3.53,8.41-5.7,13.78-5.7h48.22l61.74-106.94l-18.4-31.87c-1.77-3.06-2.62-6.42-2.62-9.74
			c0-6.72,3.48-13.26,9.74-16.86c9.32-5.39,21.22-2.19,26.6,7.12l7.17,12.42l7.17-12.42c5.37-9.32,17.28-12.52,26.6-7.12
			c6.26,3.6,9.74,10.13,9.74,16.86c0,3.32-0.84,6.68-2.62,9.74l-18.4,31.87l-22.49,38.95l-39.25,67.99h56.9
			C287.83,290.14,299.03,301.35,299.03,315.2z"/>
		<path class="st1" d="M184.11,347.23l-19.01,32.92c-5.37,9.32-17.28,12.49-26.6,7.12c-6.26-3.6-9.74-10.13-9.74-16.86
			c0-3.32,0.84-6.68,2.62-9.74l13.57-23.49c3.41-1.31,7.73-2.26,12.98-2.22C169.91,335.09,178.92,341.53,184.11,347.23z"/>
	</g>
</g>
</svg>
