<?xml version="1.0" encoding="utf-8"?>
<!-- Generator: Adobe Illustrator 23.0.3, SVG Export Plug-In . SVG Version: 6.00 Build 0)  -->
<svg version="1.1" id="Layer_1" xmlns="http://www.w3.org/2000/svg" xmlns:xlink="http://www.w3.org/1999/xlink" x="0px" y="0px"
	 viewBox="0 0 512 512" style="enable-background:new 0 0 512 512;" xml:space="preserve">
<style type="text/css">
	.st0{fill:none;stroke:#231F20;stroke-width:15;stroke-linecap:round;stroke-linejoin:round;stroke-miterlimit:10;}
	.st1{fill:#FF9501;}
	.st2{fill:#C7C6CB;}
	.st3{fill:none;stroke:#FFFFFF;stroke-width:15;stroke-linecap:round;stroke-linejoin:round;stroke-miterlimit:10;}
	.st4{fill:none;stroke:#231F20;stroke-width:4;stroke-miterlimit:10;}
</style>
<path class="st1" d="M256,50v206H50V103.91C50,74.14,74.14,50,103.91,50H256z"/>
<path class="st1" d="M462,103.91V256H256V50h152.09C437.86,50,462,74.14,462,103.91z"/>
<path class="st1" d="M256,256v206H103.91C74.14,462,50,437.86,50,408.09V256H256z"/>
<path class="st2" d="M462,256v152.09c0,29.77-24.14,53.91-53.91,53.91H256V256H462z"/>
<line class="st3" x1="153" y1="104.12" x2="153" y2="201.88"/>
<line class="st3" x1="201.88" y1="153" x2="104.12" y2="153"/>
<g>
	<line class="st3" x1="187.57" y1="324.43" x2="118.43" y2="393.57"/>
	<line class="st3" x1="187.57" y1="393.57" x2="118.43" y2="324.43"/>
	<line class="st3" x1="187.57" y1="393.57" x2="118.43" y2="324.43"/>
</g>
<line class="st3" x1="407.88" y1="153" x2="310.12" y2="153"/>
<g>
	<line class="st0" x1="407.88" y1="378.01" x2="310.12" y2="378.01"/>
	<line class="st0" x1="407.88" y1="339.99" x2="310.12" y2="339.99"/>
</g>
<line class="st4" x1="256" y1="50" x2="256" y2="462"/>
<line class="st4" x1="462" y1="256" x2="50" y2="256"/>
</svg>
