<?xml version="1.0" encoding="utf-8"?>
<!-- Generator: Adobe Illustrator 23.0.3, SVG Export Plug-In . SVG Version: 6.00 Build 0)  -->
<svg version="1.1" id="Layer_1" xmlns="http://www.w3.org/2000/svg" xmlns:xlink="http://www.w3.org/1999/xlink" x="0px" y="0px"
	 viewBox="0 0 512 512" style="enable-background:new 0 0 512 512;" xml:space="preserve">
<style type="text/css">
	.st0{fill:#00C3FF;}
	.st1{fill:#FFFFFF;}
</style>
<path class="st0" d="M408.09,462H103.91C74.14,462,50,437.86,50,408.09V103.91C50,74.14,74.14,50,103.91,50h304.17
	C437.86,50,462,74.14,462,103.91v304.17C462,437.86,437.86,462,408.09,462z"/>
<g>
	<g>
		<path class="st1" d="M255.7,267.92c-27.24-27.24-55.13-55.13-82.93-82.94c55.37,0,111.11,0,165.88,0
			C311.28,212.33,283.42,240.2,255.7,267.92z"/>
		<path class="st1" d="M172.41,327.02c18.44-18.44,36.79-36.8,55.11-55.12c9.12,9.18,18.44,18.56,27.9,28.08
			c9.94-10,19.27-19.38,28.3-28.47c18.84,18.84,37.26,37.26,55.5,55.5C284.06,327.02,228.28,327.02,172.41,327.02z"/>
		<path class="st1" d="M146.73,191.7c21.49,21.49,43.09,43.1,64.29,64.3c-21.11,21.15-42.75,42.83-64.29,64.41
			C145.05,316.92,145.07,195.07,146.73,191.7z"/>
		<path class="st1" d="M300.85,255.72c21.15-21.15,42.76-42.75,64.77-64.77c0.31,1.82,0.86,3.58,0.86,5.34
			c0.05,39.86,0.05,79.72,0,119.57c0,1.68-0.52,3.36-0.75,4.82C343.97,298.9,322.39,277.29,300.85,255.72z"/>
	</g>
</g>
</svg>
