<?xml version="1.0" encoding="utf-8"?>
<!-- Generator: Adobe Illustrator 23.0.3, SVG Export Plug-In . SVG Version: 6.00 Build 0)  -->
<svg version="1.1" id="Layer_1" xmlns="http://www.w3.org/2000/svg" xmlns:xlink="http://www.w3.org/1999/xlink" x="0px" y="0px"
	 viewBox="0 0 512 512" style="enable-background:new 0 0 512 512;" xml:space="preserve">
<style type="text/css">
	.st0{fill:#66CC70;}
	.st1{fill:#FFFFFF;}
</style>
<path class="st0" d="M408.09,462H103.91C74.14,462,50,437.86,50,408.09V103.91C50,74.14,74.14,50,103.91,50h304.17
	C437.86,50,462,74.14,462,103.91v304.17C462,437.86,437.86,462,408.09,462z"/>
<g>
	<g>
		<path class="st1" d="M329.93,192.43v127.13c0,9.93-8.04,17.96-17.96,17.96h-134.5c-9.93,0-17.96-8.04-17.96-17.96v-92.12h-24.87
			v-19.81h24.87v-15.2c0-9.93,8.04-17.96,17.96-17.96h134.5C321.89,174.47,329.93,182.51,329.93,192.43z"/>
		<polygon class="st1" points="377.37,212.96 377.37,299.04 329.93,278.72 329.93,233.28 		"/>
	</g>
</g>
</svg>
