<?xml version="1.0" encoding="utf-8"?>
<!-- Generator: Adobe Illustrator 23.0.3, SVG Export Plug-In . SVG Version: 6.00 Build 0)  -->
<svg version="1.1" id="Layer_1" xmlns="http://www.w3.org/2000/svg" xmlns:xlink="http://www.w3.org/1999/xlink" x="0px" y="0px"
	 viewBox="0 0 512 512" style="enable-background:new 0 0 512 512;" xml:space="preserve">
<style type="text/css">
	.st0{fill:#DD2E44;}
	.st1{fill:#FFFFFF;}
</style>
<path class="st0" d="M408.09,462H103.91C74.14,462,50,437.86,50,408.09V103.91C50,74.14,74.14,50,103.91,50h304.17
	C437.86,50,462,74.14,462,103.91v304.17C462,437.86,437.86,462,408.09,462z"/>
<g>
	<g>
		<path class="st1" d="M352.01,215.48c-37.56,22.89-36.85,79.34,6.86,99.66c-2.85,6.45-5.5,13.01-8.62,19.35
			c-6.26,12.71-13.35,24.88-23.37,35.14c-11.06,11.31-23.67,15.25-38.81,9.13c-4.24-1.71-8.68-2.94-13.02-4.44
			c-9.23-3.2-18.49-3.14-27.75-0.19c-5.75,1.83-11.55,3.55-17.16,5.74c-10.67,4.16-20.1,1.75-28.9-4.82
			c-11.06-8.26-19.11-19.11-25.89-30.91c-12.93-22.52-21.15-46.59-22.16-72.72c-0.8-20.79,3.19-40.5,16.36-57.29
			c16.69-21.3,39.74-27.86,65.3-19.03c4.33,1.5,8.64,3.07,12.9,4.78c6.49,2.61,12.7,2.36,19.32-0.1c9.01-3.35,18.15-7.11,27.56-8.48
			c21.03-3.08,39.41,3.07,53.78,19.37C349.69,212.1,350.72,213.73,352.01,215.48z"/>
		<path class="st1" d="M255.77,187.49c-4.08-24.43,20.44-56.83,50.15-57.42C310.14,156.71,284.12,190.82,255.77,187.49z"/>
	</g>
</g>
</svg>
