<?xml version="1.0" encoding="utf-8"?>
<!-- Generator: Adobe Illustrator 23.0.3, SVG Export Plug-In . SVG Version: 6.00 Build 0)  -->
<svg version="1.1" id="Layer_1" xmlns="http://www.w3.org/2000/svg" xmlns:xlink="http://www.w3.org/1999/xlink" x="0px" y="0px"
	 viewBox="0 0 512 512" style="enable-background:new 0 0 512 512;" xml:space="preserve">
<style type="text/css">
	.st0{fill:#66CC70;}
	.st1{fill:#FFFFFF;}
</style>
<path class="st0" d="M408.09,462H103.91C74.14,462,50,437.86,50,408.09V103.91C50,74.14,74.14,50,103.91,50h304.17
	C437.86,50,462,74.14,462,103.91v304.17C462,437.86,437.86,462,408.09,462z"/>
<path class="st1" d="M365.24,256c0,51.63-48.95,93.55-109.24,93.55c-16.83,0-32.72-3.22-46.94-9.12l-28.83,18.78l4.36-32.52
	c-23.13-17.03-37.82-42.38-37.82-70.68c0-51.63,48.89-93.54,109.24-93.54C316.28,162.46,365.24,204.37,365.24,256z"/>
</svg>
