<?xml version="1.0" encoding="utf-8"?>
<!-- Generator: Adobe Illustrator 23.0.3, SVG Export Plug-In . SVG Version: 6.00 Build 0)  -->
<svg version="1.1" id="Layer_1" xmlns="http://www.w3.org/2000/svg" xmlns:xlink="http://www.w3.org/1999/xlink" x="0px" y="0px"
	 viewBox="0 0 512 512" style="enable-background:new 0 0 512 512;" xml:space="preserve">
<style type="text/css">
	.st0{fill:#FFAB15;}
	.st1{fill:#F2F2F2;}
	.st2{fill:#CCCCCC;}
</style>
<path class="st0" d="M462,103.91v49.02H50v-49.02C50,74.14,74.14,50,103.91,50h304.17C437.86,50,462,74.14,462,103.91z"/>
<path class="st1" d="M462,152.93v255.15c0,2.75-0.2,5.36-0.6,7.98c-3.89,26.02-26.29,45.93-53.31,45.93H103.91
	c-27.02,0-49.42-19.92-53.31-45.93c-0.4-2.62-0.6-5.23-0.6-7.98V152.93H462z"/>
<g>
	<g>
		<circle class="st2" cx="90.66" cy="197.59" r="10.86"/>
		<circle class="st2" cx="90.66" cy="197.59" r="10.86"/>
		<circle class="st2" cx="145.78" cy="197.59" r="10.86"/>
		<circle class="st2" cx="200.9" cy="197.59" r="10.86"/>
		<circle class="st2" cx="256.02" cy="197.59" r="10.86"/>
		<circle class="st2" cx="311.14" cy="197.59" r="10.86"/>
		<circle class="st2" cx="366.26" cy="197.59" r="10.86"/>
		<circle class="st2" cx="421.39" cy="197.59" r="10.86"/>
	</g>
</g>
<rect x="50" y="317.89" class="st2" width="412" height="25.75"/>
<path class="st2" d="M462,390.32v17.77c0,2.75-0.2,5.36-0.6,7.98H50.6c-0.4-2.62-0.6-5.23-0.6-7.98v-17.77H462z"/>
</svg>
