<?xml version="1.0" encoding="utf-8"?>
<!-- Generator: Adobe Illustrator 23.0.3, SVG Export Plug-In . SVG Version: 6.00 Build 0)  -->
<svg version="1.1" id="Layer_1" xmlns="http://www.w3.org/2000/svg" xmlns:xlink="http://www.w3.org/1999/xlink" x="0px" y="0px"
	 viewBox="0 0 512 512" style="enable-background:new 0 0 512 512;" xml:space="preserve">
<style type="text/css">
	.st0{fill:#66CC70;}
	.st1{fill:#FFFFFF;}
</style>
<path class="st0" d="M408.09,462H103.91C74.14,462,50,437.86,50,408.09V103.91C50,74.14,74.14,50,103.91,50h304.17
	C437.86,50,462,74.14,462,103.91v304.17C462,437.86,437.86,462,408.09,462z"/>
<path class="st1" d="M182.75,168.19c-1.74,1.37-3.37,2.94-4.85,4.6c-7.87,8.82-14.91,18.85-14.55,31.22
	c0.39,13.29,6.27,25.43,13.75,36.15c10.76,15.41,63.83,70.03,78.11,82.27c10.68,9.15,22.08,18.39,35.42,23.34
	c14.26,5.3,28.08,2.64,40.61-5.67c6.6-4.38,15.06-10.32,17.08-18.52c1.76-7.11-3.55-13.61-8.44-18.06
	c-9.81-8.93-27.46-28.49-40.11-13.45c-6.04,7.18-9.69,9.23-17.89,2.62c-8.21-6.61-65.74-66.65-65.74-66.65s-4.9-5.36,5.01-12.99
	c4.17-3.21,6.5-7.94,5.93-13.22c-0.78-7.2-6.86-13.26-11.11-18.76c-3.84-4.97-7.84-11.09-13.05-14.75
	C195.82,161.34,188.64,163.57,182.75,168.19z"/>
</svg>
