<?xml version="1.0" encoding="utf-8"?>
<!-- Generator: Adobe Illustrator 23.0.3, SVG Export Plug-In . SVG Version: 6.00 Build 0)  -->
<svg version="1.1" id="Layer_1" xmlns="http://www.w3.org/2000/svg" xmlns:xlink="http://www.w3.org/1999/xlink" x="0px" y="0px"
	 viewBox="0 0 512 512" style="enable-background:new 0 0 512 512;" xml:space="preserve">
<style type="text/css">
	.st0{fill:#F2F2F2;}
	.st1{fill:#FFAB15;}
	.st2{fill:#FFDC40;}
	.st3{fill:#BEE548;}
	.st4{fill:#39E5D0;}
	.st5{fill:#00C3FF;}
	.st6{fill:#CD67E5;}
	.st7{fill:#FF5AD4;}
	.st8{fill:#FF6849;}
</style>
<path class="st0" d="M408.09,462H103.91C74.14,462,50,437.86,50,408.09V103.91C50,74.14,74.14,50,103.91,50h304.17
	C437.86,50,462,74.14,462,103.91v304.17C462,437.86,437.86,462,408.09,462z"/>
<path class="st1" d="M256,231.86L256,231.86c-15,0-27.16-12.16-27.16-27.16v-41.64c0-15,12.16-27.16,27.16-27.16h0
	c15,0,27.16,12.16,27.16,27.16v41.64C283.16,219.7,271,231.86,256,231.86z"/>
<path class="st2" d="M273.07,238.93L273.07,238.93c-10.61-10.61-10.61-27.8,0-38.41l29.45-29.45c10.61-10.61,27.8-10.61,38.41,0l0,0
	c10.61,10.61,10.61,27.8,0,38.41l-29.45,29.45C300.87,249.54,283.68,249.54,273.07,238.93z"/>
<path class="st3" d="M280.14,256L280.14,256c0-15,12.16-27.16,27.16-27.16h41.64c15,0,27.16,12.16,27.16,27.16v0
	c0,15-12.16,27.16-27.16,27.16H307.3C292.3,283.16,280.14,271,280.14,256z"/>
<path class="st4" d="M273.07,273.07L273.07,273.07c10.61-10.61,27.8-10.61,38.41,0l29.45,29.45c10.61,10.61,10.61,27.8,0,38.41l0,0
	c-10.61,10.61-27.8,10.61-38.41,0l-29.45-29.45C262.46,300.87,262.46,283.68,273.07,273.07z"/>
<path class="st5" d="M256,280.14L256,280.14c15,0,27.16,12.16,27.16,27.16v41.64c0,15-12.16,27.16-27.16,27.16h0
	c-15,0-27.16-12.16-27.16-27.16V307.3C228.84,292.3,241,280.14,256,280.14z"/>
<path class="st6" d="M238.93,273.07L238.93,273.07c10.61,10.61,10.61,27.8,0,38.41l-29.45,29.45c-10.61,10.61-27.8,10.61-38.41,0
	l0,0c-10.61-10.61-10.61-27.8,0-38.41l29.45-29.45C211.13,262.46,228.32,262.46,238.93,273.07z"/>
<path class="st7" d="M231.86,256L231.86,256c0,15-12.16,27.16-27.16,27.16h-41.64c-15,0-27.16-12.16-27.16-27.16v0
	c0-15,12.16-27.16,27.16-27.16h41.64C219.7,228.84,231.86,241,231.86,256z"/>
<path class="st8" d="M238.93,238.93L238.93,238.93c-10.61,10.61-27.8,10.61-38.41,0l-29.45-29.45c-10.61-10.61-10.61-27.8,0-38.41
	l0,0c10.61-10.61,27.8-10.61,38.41,0l29.45,29.45C249.54,211.13,249.54,228.32,238.93,238.93z"/>
</svg>
