<?xml version="1.0" encoding="UTF-8" standalone="no"?> <svg width="512" height="512" viewBox="0 0 512 512" fill="none" xmlns="http://www.w3.org/2000/svg">
<path fill-rule="evenodd" clip-rule="evenodd" d="M225.657 26.3433C222.94 23.626 218.674 23.2246 215.498 25.3874L27.4977 153.39C25.3994 154.819 24.1036 157.158 24.0059 159.695C23.9083 162.232 25.0202 164.664 27.0025 166.25L60.023 192.667L34.3432 218.347C31.4174 221.273 31.2054 225.947 33.8542 229.126L65.2569 266.81C50.4621 272.679 40.0005 287.121 40.0005 304.006C40.0005 326.098 57.9091 344.007 80.0005 344.007H88V363.756C88 389.056 101.279 412.501 122.979 425.51L202.525 473.199C235.444 492.934 276.556 492.934 309.475 473.199L389.021 425.51C410.721 412.501 424 389.056 424 363.756V344.007H432C454.091 344.007 472 326.098 472 304.006C472 287.121 461.538 272.679 446.743 266.81L478.146 229.126C480.795 225.947 480.583 221.273 477.657 218.347L451.977 192.667L484.998 166.25C486.832 164.783 487.928 162.583 487.997 160.235C488.065 157.887 487.098 155.628 485.352 154.056L365.352 46.0542C362.766 43.7273 358.974 43.3376 355.969 45.0903L317.985 67.2482L311.891 30.6851C311.432 27.9295 309.569 25.613 306.975 24.574C304.382 23.535 301.435 23.924 299.2 25.6002L256.751 57.4378L225.657 26.3433ZM428.253 264.005L461.177 224.495L434.343 197.661C432.734 196.051 431.886 193.833 432.012 191.561C432.138 189.289 433.226 187.178 435.002 185.756L467.642 159.644L358.988 61.8529L316.031 86.9116C313.759 88.2367 310.982 88.3608 308.601 87.2435C306.221 86.1263 304.541 83.9105 304.109 81.3165L298.272 46.2964L260.8 74.4011C257.615 76.7899 253.158 76.4732 250.343 73.658L219.027 42.3412L45.4539 160.521L76.9976 185.756C78.7745 187.178 79.8619 189.289 79.9878 191.561C80.1136 193.833 79.2659 196.051 77.6569 197.661L50.8228 224.495L83.7469 264.005H88V232.005C88 229.106 89.5675 226.435 92.0974 225.021L228.097 149.019C230.106 147.897 232.501 147.694 234.671 148.462C236.84 149.23 238.573 150.895 239.428 153.032L259.91 204.239L323.828 165.177C326.512 163.537 329.908 163.622 332.507 165.393L420.507 225.395C422.692 226.885 424 229.359 424 232.005V264.005H428.253ZM432 328.006H424V280.005H432C445.255 280.005 456 290.751 456 304.006C456 317.261 445.255 328.006 432 328.006ZM88 280.005H80.0005C66.7457 280.005 56.0005 290.751 56.0005 304.006C56.0005 317.261 66.7457 328.006 80.0005 328.006H88V280.005ZM104 236.699V363.756C104 383.434 114.328 401.668 131.206 411.787L210.752 459.476C238.606 476.175 273.394 476.175 301.248 459.476L380.794 411.787C397.672 401.668 408 383.434 408 363.756V236.233L327.763 181.524L260.172 222.831C258.162 224.059 255.712 224.339 253.477 223.596C251.241 222.853 249.447 221.163 248.572 218.976L227.954 167.429L104 236.699ZM208.001 304.005C208.001 317.26 197.256 328.006 184 328.006C170.745 328.006 160 317.26 160 304.005C160 290.75 170.745 280.005 184 280.005C197.256 280.005 208.001 290.75 208.001 304.005ZM328 328.006C341.256 328.006 352.001 317.26 352.001 304.005C352.001 290.75 341.256 280.005 328 280.005C314.745 280.005 304 290.75 304 304.005C304 317.26 314.745 328.006 328 328.006ZM184.002 248.004C178.612 248.004 174.016 248.942 171.58 250.16C167.628 252.136 162.822 250.534 160.846 246.582C158.87 242.63 160.472 237.825 164.424 235.849C169.988 233.067 177.392 232.004 184.002 232.004C190.612 232.004 198.016 233.067 203.58 235.849C207.532 237.825 209.134 242.63 207.158 246.582C205.182 250.534 200.377 252.136 196.425 250.16C193.989 248.942 189.392 248.004 184.002 248.004ZM315.58 250.16C318.016 248.942 322.612 248.004 328.002 248.004C333.392 248.004 337.989 248.942 340.425 250.16C344.377 252.136 349.182 250.534 351.158 246.582C353.134 242.63 351.532 237.825 347.58 235.849C342.016 233.067 334.612 232.004 328.002 232.004C321.392 232.004 313.988 233.067 308.424 235.849C304.472 237.825 302.87 242.63 304.846 246.582C306.823 250.534 311.628 252.136 315.58 250.16ZM200 368.007C204.418 368.007 208 371.589 208 376.007C208 381.073 209.162 386.128 211.466 390.895C213.772 395.668 217.195 400.092 221.608 403.875C226.024 407.659 231.329 410.714 237.246 412.815C243.164 414.916 249.539 416.008 256 416.008C262.461 416.008 268.836 414.916 274.754 412.815C280.671 410.714 285.976 407.659 290.392 403.875C294.805 400.092 298.228 395.668 300.534 390.895C302.838 386.128 304 381.073 304 376.007C304 371.589 307.582 368.007 312 368.007C316.418 368.007 320 371.589 320 376.007C320 383.548 318.265 390.977 314.94 397.857C311.618 404.731 306.791 410.891 300.804 416.023C294.819 421.153 287.778 425.17 280.107 427.893C272.436 430.617 264.247 432.008 256 432.008C247.753 432.008 239.564 430.617 231.893 427.893C224.222 425.17 217.181 421.153 211.196 416.023C205.209 410.891 200.382 404.731 197.06 397.857C193.735 390.977 192 383.548 192 376.007C192 371.589 195.582 368.007 200 368.007Z" fill="url(#paint0_linear)"/>
<defs>
<linearGradient id="paint0_linear" x1="31" y1="31" x2="481" y2="481" gradientUnits="userSpaceOnUse">
<stop stop-color="#FF003D"/>
<stop offset="1" stop-color="#3D00EB"/>
</linearGradient>
</defs>
</svg>
